<svg xmlns="http://www.w3.org/2000/svg" xmlns:xlink="http://www.w3.org/1999/xlink" width="250" zoomAndPan="magnify" viewBox="0 0 375 374.999991" height="250" preserveAspectRatio="xMidYMid meet" version="1.0"><defs><g/><clipPath id="3e743edf8b"><path d="M 166.953125 178.910156 L 181.871094 178.910156 L 181.871094 204.453125 L 166.953125 204.453125 Z M 166.953125 178.910156 " clip-rule="nonzero"/></clipPath><clipPath id="ded13cf842"><path d="M 168 173 L 179 173 L 179 205 L 168 205 Z M 168 173 " clip-rule="nonzero"/></clipPath><clipPath id="f8bd6169f1"><path d="M 163.269531 178.265625 L 176.75 173.65625 L 185.734375 199.910156 L 172.25 204.523438 Z M 163.269531 178.265625 " clip-rule="nonzero"/></clipPath><clipPath id="c038d65685"><path d="M 163.269531 178.265625 L 176.75 173.65625 L 185.734375 199.910156 L 172.25 204.523438 Z M 163.269531 178.265625 " clip-rule="nonzero"/></clipPath><clipPath id="809360fa60"><path d="M 168 175 L 174 175 L 174 205 L 168 205 Z M 168 175 " clip-rule="nonzero"/></clipPath><clipPath id="4bb0fec66b"><path d="M 163.269531 178.265625 L 176.75 173.65625 L 185.734375 199.910156 L 172.25 204.523438 Z M 163.269531 178.265625 " clip-rule="nonzero"/></clipPath><clipPath id="ad5bc07405"><path d="M 163.269531 178.265625 L 176.75 173.65625 L 185.734375 199.910156 L 172.25 204.523438 Z M 163.269531 178.265625 " clip-rule="nonzero"/></clipPath></defs><g fill="#ffffff" fill-opacity="1"><g transform="translate(72.045631, 204.282731)"><g><path d="M 13.6875 -25.828125 C 17.90625 -25.828125 21.125 -24.863281 23.34375 -22.9375 C 25.5625 -21.019531 26.671875 -18.078125 26.671875 -14.109375 L 26.671875 0 L 18.375 0 L 18.375 -3.28125 C 17.09375 -0.8125 14.59375 0.421875 10.875 0.421875 C 8.90625 0.421875 7.203125 0.078125 5.765625 -0.609375 C 4.328125 -1.296875 3.238281 -2.222656 2.5 -3.390625 C 1.769531 -4.566406 1.40625 -5.90625 1.40625 -7.40625 C 1.40625 -9.8125 2.328125 -11.675781 4.171875 -13 C 6.015625 -14.332031 8.859375 -15 12.703125 -15 L 17.765625 -15 C 17.609375 -17.6875 15.8125 -19.03125 12.375 -19.03125 C 11.15625 -19.03125 9.921875 -18.832031 8.671875 -18.4375 C 7.421875 -18.050781 6.359375 -17.515625 5.484375 -16.828125 L 2.484375 -22.875 C 3.890625 -23.8125 5.597656 -24.535156 7.609375 -25.046875 C 9.628906 -25.566406 11.65625 -25.828125 13.6875 -25.828125 Z M 13.359375 -5.203125 C 14.390625 -5.203125 15.296875 -5.453125 16.078125 -5.953125 C 16.859375 -6.453125 17.421875 -7.1875 17.765625 -8.15625 L 17.765625 -10.359375 L 13.921875 -10.359375 C 11.328125 -10.359375 10.03125 -9.5 10.03125 -7.78125 C 10.03125 -7 10.328125 -6.375 10.921875 -5.90625 C 11.515625 -5.4375 12.328125 -5.203125 13.359375 -5.203125 Z M 13.359375 -5.203125 "/></g></g></g><g fill="#ffffff" fill-opacity="1"><g transform="translate(96.701764, 204.282731)"><g><path d="M 19.40625 -25.828125 C 22.5625 -25.828125 25.097656 -24.890625 27.015625 -23.015625 C 28.941406 -21.140625 29.90625 -18.3125 29.90625 -14.53125 L 29.90625 0 L 21 0 L 21 -13.078125 C 21 -16.546875 19.609375 -18.28125 16.828125 -18.28125 C 15.296875 -18.28125 14.066406 -17.78125 13.140625 -16.78125 C 12.222656 -15.78125 11.765625 -14.28125 11.765625 -12.28125 L 11.765625 0 L 2.859375 0 L 2.859375 -25.40625 L 11.34375 -25.40625 L 11.34375 -22.640625 C 12.34375 -23.671875 13.53125 -24.457031 14.90625 -25 C 16.28125 -25.550781 17.78125 -25.828125 19.40625 -25.828125 Z M 19.40625 -25.828125 "/></g></g></g><g fill="#ffffff" fill-opacity="1"><g transform="translate(124.545398, 204.282731)"><g><path d="M 19.40625 -25.828125 C 22.5625 -25.828125 25.097656 -24.890625 27.015625 -23.015625 C 28.941406 -21.140625 29.90625 -18.3125 29.90625 -14.53125 L 29.90625 0 L 21 0 L 21 -13.078125 C 21 -16.546875 19.609375 -18.28125 16.828125 -18.28125 C 15.296875 -18.28125 14.066406 -17.78125 13.140625 -16.78125 C 12.222656 -15.78125 11.765625 -14.28125 11.765625 -12.28125 L 11.765625 0 L 2.859375 0 L 2.859375 -25.40625 L 11.34375 -25.40625 L 11.34375 -22.640625 C 12.34375 -23.671875 13.53125 -24.457031 14.90625 -25 C 16.28125 -25.550781 17.78125 -25.828125 19.40625 -25.828125 Z M 19.40625 -25.828125 "/></g></g></g><g fill="#ffffff" fill-opacity="1"><g transform="translate(152.389031, 204.282731)"><g><path d="M 13.6875 -25.828125 C 17.90625 -25.828125 21.125 -24.863281 23.34375 -22.9375 C 25.5625 -21.019531 26.671875 -18.078125 26.671875 -14.109375 L 26.671875 0 L 18.375 0 L 18.375 -3.28125 C 17.09375 -0.8125 14.59375 0.421875 10.875 0.421875 C 8.90625 0.421875 7.203125 0.078125 5.765625 -0.609375 C 4.328125 -1.296875 3.238281 -2.222656 2.5 -3.390625 C 1.769531 -4.566406 1.40625 -5.90625 1.40625 -7.40625 C 1.40625 -9.8125 2.328125 -11.675781 4.171875 -13 C 6.015625 -14.332031 8.859375 -15 12.703125 -15 L 17.765625 -15 C 17.609375 -17.6875 15.8125 -19.03125 12.375 -19.03125 C 11.15625 -19.03125 9.921875 -18.832031 8.671875 -18.4375 C 7.421875 -18.050781 6.359375 -17.515625 5.484375 -16.828125 L 2.484375 -22.875 C 3.890625 -23.8125 5.597656 -24.535156 7.609375 -25.046875 C 9.628906 -25.566406 11.65625 -25.828125 13.6875 -25.828125 Z M 13.359375 -5.203125 C 14.390625 -5.203125 15.296875 -5.453125 16.078125 -5.953125 C 16.859375 -6.453125 17.421875 -7.1875 17.765625 -8.15625 L 17.765625 -10.359375 L 13.921875 -10.359375 C 11.328125 -10.359375 10.03125 -9.5 10.03125 -7.78125 C 10.03125 -7 10.328125 -6.375 10.921875 -5.90625 C 11.515625 -5.4375 12.328125 -5.203125 13.359375 -5.203125 Z M 13.359375 -5.203125 "/></g></g></g><g fill="#ffffff" fill-opacity="1"><g transform="translate(177.045165, 204.282731)"><g><path d="M 29.859375 -34.78125 L 29.859375 0 L 21.375 0 L 21.375 -2.53125 C 19.71875 -0.5625 17.234375 0.421875 13.921875 0.421875 C 11.609375 0.421875 9.5 -0.113281 7.59375 -1.1875 C 5.6875 -2.269531 4.175781 -3.8125 3.0625 -5.8125 C 1.957031 -7.8125 1.40625 -10.125 1.40625 -12.75 C 1.40625 -15.375 1.957031 -17.675781 3.0625 -19.65625 C 4.175781 -21.644531 5.6875 -23.171875 7.59375 -24.234375 C 9.5 -25.296875 11.609375 -25.828125 13.921875 -25.828125 C 16.953125 -25.828125 19.296875 -24.953125 20.953125 -23.203125 L 20.953125 -34.78125 Z M 15.796875 -6.65625 C 17.328125 -6.65625 18.59375 -7.191406 19.59375 -8.265625 C 20.59375 -9.347656 21.09375 -10.84375 21.09375 -12.75 C 21.09375 -14.625 20.597656 -16.09375 19.609375 -17.15625 C 18.628906 -18.21875 17.359375 -18.75 15.796875 -18.75 C 14.234375 -18.75 12.953125 -18.21875 11.953125 -17.15625 C 10.953125 -16.09375 10.453125 -14.625 10.453125 -12.75 C 10.453125 -10.84375 10.953125 -9.347656 11.953125 -8.265625 C 12.953125 -7.191406 14.234375 -6.65625 15.796875 -6.65625 Z M 15.796875 -6.65625 "/></g></g></g><g fill="#ffffff" fill-opacity="1"><g transform="translate(204.982548, 204.282731)"><g><path d="M 29.578125 -25.40625 L 29.578125 0 L 21.09375 0 L 21.09375 -2.71875 C 20.15625 -1.6875 19.03125 -0.90625 17.71875 -0.375 C 16.40625 0.15625 15.015625 0.421875 13.546875 0.421875 C 10.265625 0.421875 7.644531 -0.546875 5.6875 -2.484375 C 3.738281 -4.421875 2.765625 -7.328125 2.765625 -11.203125 L 2.765625 -25.40625 L 11.671875 -25.40625 L 11.671875 -12.65625 C 11.671875 -10.75 12.03125 -9.359375 12.75 -8.484375 C 13.46875 -7.609375 14.515625 -7.171875 15.890625 -7.171875 C 17.296875 -7.171875 18.441406 -7.660156 19.328125 -8.640625 C 20.222656 -9.628906 20.671875 -11.140625 20.671875 -13.171875 L 20.671875 -25.40625 Z M 29.578125 -25.40625 "/></g></g></g><g fill="#ffffff" fill-opacity="1"><g transform="translate(232.638682, 204.282731)"><g><path d="M 15.609375 0.421875 C 12.890625 0.421875 10.4375 -0.140625 8.25 -1.265625 C 6.0625 -2.390625 4.347656 -3.953125 3.109375 -5.953125 C 1.878906 -7.953125 1.265625 -10.21875 1.265625 -12.75 C 1.265625 -15.25 1.878906 -17.5 3.109375 -19.5 C 4.347656 -21.5 6.050781 -23.050781 8.21875 -24.15625 C 10.394531 -25.269531 12.859375 -25.828125 15.609375 -25.828125 C 18.359375 -25.828125 20.828125 -25.269531 23.015625 -24.15625 C 25.203125 -23.050781 26.90625 -21.503906 28.125 -19.515625 C 29.34375 -17.535156 29.953125 -15.28125 29.953125 -12.75 C 29.953125 -10.21875 29.34375 -7.953125 28.125 -5.953125 C 26.90625 -3.953125 25.203125 -2.390625 23.015625 -1.265625 C 20.828125 -0.140625 18.359375 0.421875 15.609375 0.421875 Z M 15.609375 -6.65625 C 17.171875 -6.65625 18.453125 -7.191406 19.453125 -8.265625 C 20.453125 -9.347656 20.953125 -10.84375 20.953125 -12.75 C 20.953125 -14.625 20.453125 -16.09375 19.453125 -17.15625 C 18.453125 -18.21875 17.171875 -18.75 15.609375 -18.75 C 14.046875 -18.75 12.765625 -18.21875 11.765625 -17.15625 C 10.765625 -16.09375 10.265625 -14.625 10.265625 -12.75 C 10.265625 -10.84375 10.765625 -9.347656 11.765625 -8.265625 C 12.765625 -7.191406 14.046875 -6.65625 15.609375 -6.65625 Z M 15.609375 -6.65625 "/></g></g></g><g fill="#ffffff" fill-opacity="1"><g transform="translate(259.076065, 204.282731)"><g><path d="M 19.40625 -25.828125 C 22.5625 -25.828125 25.097656 -24.890625 27.015625 -23.015625 C 28.941406 -21.140625 29.90625 -18.3125 29.90625 -14.53125 L 29.90625 0 L 21 0 L 21 -13.078125 C 21 -16.546875 19.609375 -18.28125 16.828125 -18.28125 C 15.296875 -18.28125 14.066406 -17.78125 13.140625 -16.78125 C 12.222656 -15.78125 11.765625 -14.28125 11.765625 -12.28125 L 11.765625 0 L 2.859375 0 L 2.859375 -25.40625 L 11.34375 -25.40625 L 11.34375 -22.640625 C 12.34375 -23.671875 13.53125 -24.457031 14.90625 -25 C 16.28125 -25.550781 17.78125 -25.828125 19.40625 -25.828125 Z M 19.40625 -25.828125 "/></g></g></g><g fill="#ffffff" fill-opacity="1"><g transform="translate(286.919699, 204.282731)"><g><path d="M 30.1875 -25.40625 L 30.1875 -4.640625 C 30.1875 0.078125 28.90625 3.613281 26.34375 5.96875 C 23.78125 8.332031 20.09375 9.515625 15.28125 9.515625 C 12.78125 9.515625 10.4375 9.234375 8.25 8.671875 C 6.0625 8.109375 4.203125 7.28125 2.671875 6.1875 L 5.90625 -0.046875 C 6.9375 0.796875 8.238281 1.457031 9.8125 1.9375 C 11.394531 2.425781 12.953125 2.671875 14.484375 2.671875 C 16.828125 2.671875 18.546875 2.15625 19.640625 1.125 C 20.734375 0.09375 21.28125 -1.4375 21.28125 -3.46875 L 21.28125 -4.3125 C 19.5625 -2.3125 17.046875 -1.3125 13.734375 -1.3125 C 11.484375 -1.3125 9.40625 -1.816406 7.5 -2.828125 C 5.59375 -3.847656 4.078125 -5.285156 2.953125 -7.140625 C 1.828125 -9.003906 1.265625 -11.15625 1.265625 -13.59375 C 1.265625 -16 1.828125 -18.128906 2.953125 -19.984375 C 4.078125 -21.847656 5.59375 -23.285156 7.5 -24.296875 C 9.40625 -25.316406 11.484375 -25.828125 13.734375 -25.828125 C 17.359375 -25.828125 20.015625 -24.65625 21.703125 -22.3125 L 21.703125 -25.40625 Z M 15.84375 -8.390625 C 17.4375 -8.390625 18.753906 -8.875 19.796875 -9.84375 C 20.847656 -10.8125 21.375 -12.0625 21.375 -13.59375 C 21.375 -15.125 20.859375 -16.363281 19.828125 -17.3125 C 18.796875 -18.269531 17.46875 -18.75 15.84375 -18.75 C 14.21875 -18.75 12.878906 -18.269531 11.828125 -17.3125 C 10.785156 -16.363281 10.265625 -15.125 10.265625 -13.59375 C 10.265625 -12.0625 10.796875 -10.8125 11.859375 -9.84375 C 12.921875 -8.875 14.25 -8.390625 15.84375 -8.390625 Z M 15.84375 -8.390625 "/></g></g></g><g clip-path="url(#3e743edf8b)"><path fill="#ffffff" d="M 166.953125 178.910156 L 181.871094 178.910156 L 181.871094 204.4375 L 166.953125 204.4375 Z M 166.953125 178.910156 " fill-opacity="1" fill-rule="nonzero"/></g><g clip-path="url(#ded13cf842)"><g clip-path="url(#f8bd6169f1)"><g clip-path="url(#c038d65685)"><path fill="#ff914d" d="M 169.875 176.007812 L 176.59375 173.710938 L 174.351562 184.558594 L 178.292969 183.210938 L 172.226562 204.445312 L 173.007812 189.320312 L 168.792969 190.996094 Z M 169.875 176.007812 " fill-opacity="1" fill-rule="nonzero"/></g></g></g><g clip-path="url(#809360fa60)"><g clip-path="url(#4bb0fec66b)"><g clip-path="url(#ad5bc07405)"><path fill="#ff3131" d="M 169.875 176.007812 L 171.035156 175.609375 L 168.792969 190.996094 Z M 172.226562 204.445312 L 173.816406 189.042969 L 173.007812 189.320312 Z M 172.226562 204.445312 " fill-opacity="1" fill-rule="nonzero"/></g></g></g></svg>