<svg width="109" height="57" viewBox="0 0 109 57" fill="none" xmlns="http://www.w3.org/2000/svg">
  <path d="M68 42.39C68 41.3438 68.9096 40.53 69.9493 40.6459L101.251 44.136C105.227 44.5794 108.591 41.226 108.161 37.2483C107.713 33.1161 103.434 30.5622 99.5844 32.1306L70.4171 44.0151C69.2629 44.4854 68 43.6363 68 42.39Z" fill="url(#paint0_linear_2205_14)"/>
  <path d="M0.9 45L13.635 13.365H18.63L31.32 45H24.795L14.985 19.035H17.235L7.29 45H0.9ZM7.65 39.105V33.975H24.66V39.105H7.65ZM34.778 45V12.465H40.673V45H34.778ZM47.5311 45.45C46.0711 45.45 44.8261 44.97 43.7911 44.01C42.7561 43.02 41.8961 41.67 41.2111 39.96C40.5261 38.25 40.1261 36.3 40.1261 34.11C40.1261 31.95 40.6111 30.03 41.5811 28.35C42.5611 26.64 43.8411 25.29 45.4211 24.3C47.0011 23.28 48.6961 22.77 50.4061 22.77C52.1161 22.77 53.6411 23.25 55.0811 24.21C56.5411 25.14 57.7411 26.43 58.6811 28.08C59.6411 29.7 60.1261 31.545 60.1261 33.615C60.1261 34.005 60.1061 34.41 60.0561 34.83C60.0361 35.22 59.9811 35.67 59.8911 36.18L43.0111 36.225V31.815L55.5361 31.77L53.5511 33.615C53.5111 32.325 53.3661 31.245 53.1161 30.375C52.8811 29.505 52.4961 28.845 51.9611 28.395C51.4561 27.915 50.7461 27.675 49.8211 27.675C48.8561 27.675 48.0061 27.945 47.2661 28.485C46.5411 28.995 45.9211 29.73 45.4211 30.69C44.9511 31.62 44.6911 32.73 44.6911 34.02C44.6911 35.34 44.8411 36.495 45.1311 37.485C45.4511 38.445 45.8761 39.195 46.4061 39.735C46.9461 40.245 47.6011 40.5 48.3711 40.5C49.0961 40.5 49.7861 40.32 50.4411 39.96C51.1161 39.57 51.6811 39 52.1411 38.25L54.0661 41.715C53.3561 42.945 52.4161 43.875 51.2461 44.505C50.1011 45.135 48.7611 45.45 47.5311 45.45ZM74.5318 45L69.3018 30.915H68.9018L62.0718 13.365H67.3168L72.3618 26.64H72.7618L79.5468 45H74.5318ZM56.0318 45L66.3668 28.08L69.3668 31.095L63.4618 45H56.0318ZM70.5768 29.97L67.0768 26.955L74.0768 13.365H79.0068L70.5768 29.97Z" fill="white"/>
  <defs>
    <linearGradient id="paint0_linear_2205_14" x1="219.1" y1="39.9983" x2="202.599" y2="91.4037" gradientUnits="userSpaceOnUse">
      <stop stop-color="#DF8908"/>
      <stop offset="1" stop-color="#B415FF"/>
    </linearGradient>
  </defs>
</svg>